# xmcd
#
# Track frame offsets: 
#        150
#        26455
#        54925
#        77960
#        115680
#        160025
#        188065
#        225160
#
# Disc length: 3358 seconds
#
# Revision: 0
# Processed by: cddbd v1.5.1PL0 Copyright (c) Steve Scherf et al.
# Submitted via: ExactAudioCopy v0.95a5
#
DISCID=4d0d1c08
DTITLE=Songs For Layla - CD2 - Eric Clapton
DYEAR=1992
DGENRE=Blues
TTITLE0=Watch Yourself
TTITLE1=Hideaway
TTITLE2=Standing 'Round Crying
TTITLE3=All Your Love
TTITLE4=Have You Ever Loved A Woman
TTITLE5=That's Alright
TTITLE6=Key To The Highway
TTITLE7=Early One Morning
EXTD=
EXTT0=
EXTT1=
EXTT2=
EXTT3=
EXTT4=
EXTT5=
EXTT6=
EXTT7=
PLAYORDER=
